<?xml version="1.0" encoding="utf-8"?>
<!-- Generator: Adobe Illustrator 25.0.1, SVG Export Plug-In . SVG Version: 6.00 Build 0)  -->
<svg version="1.1" id="Layer_1" xmlns="http://www.w3.org/2000/svg" xmlns:xlink="http://www.w3.org/1999/xlink" x="0px" y="0px" width="116pt" height="38pt"
	 viewBox="0 0 633.09 207.58" style="enable-background:new 0 0 633.09 207.58;" xml:space="preserve">
<style type="text/css">
	.st0{fill:#7D7EBC;}
	.st1{fill:#FFFFFF;}
	.st2{fill:#AFAFD8;}
	.st3{fill:#9190C5;}
	.st4{fill:#C7C6C5;}
</style>
<g>
	<path class="st0" d="M97,74.18L55.75,50.37c-2.66-1.54-7.01-1.54-9.67,0L4.84,74.18c-1.37,0.79-2.61,2.18-3.49,3.76l49.57,28.62
		l49.57-28.62C99.6,76.36,98.37,74.97,97,74.18z"/>
	<path class="st1" d="M70.54,73.07c-1.23,0-2.4,0.13-3.47,0.37l-8.82-5.09c0.61-0.61,0.96-1.31,0.96-2.05c0-2.49-3.9-4.51-8.71-4.51
		c-1.09,0-2.13,0.11-3.09,0.3L36.6,55.85l-3.53,2.04l-0.68,0.39l10.35,5.98c-0.61,0.61-0.96,1.31-0.96,2.05
		c0,2.17,2.96,3.98,6.91,4.41v12c-3.95,0.43-6.91,2.24-6.91,4.41c0,2.49,3.9,4.51,8.71,4.51s8.71-2.02,8.71-4.51
		c0-2.06-2.67-3.79-6.31-4.33V70.63c0.23-0.03,0.46-0.07,0.68-0.12l9.02,5.21c-0.5,0.57-0.78,1.19-0.78,1.86
		c0,2.49,3.9,4.51,8.71,4.51c4.81,0,8.71-2.02,8.71-4.51C79.25,75.09,75.35,73.07,70.54,73.07z"/>
	<path class="st2" d="M1.35,77.94C0.52,79.42,0,81.07,0,82.56v47.62c0,3.07,2.18,6.84,4.84,8.38l41.24,23.81
		c1.33,0.77,3.08,1.15,4.84,1.15v-56.97L1.35,77.94z"/>
	<path class="st3" d="M97,138.56c2.66-1.54,4.84-5.31,4.84-8.38V82.56c0-1.49-0.52-3.14-1.35-4.62l-49.57,28.62v56.97
		c1.75,0,3.51-0.38,4.84-1.15L97,138.56z"/>
</g>
<g>
	<path class="st4" d="M151.09,139.07v-9.28l7.31-0.81c1.62-0.12,1.86-0.58,1.86-2.32V67.39c0-1.74-0.23-2.09-1.86-2.32l-7.31-0.81
		v-9.16h37.58c29.11,0,41.64,15.66,41.64,40.71c0,25.75-13.57,43.27-43.61,43.27H151.09z M184.84,126.55
		c20.41,0,27.26-12.06,27.26-29.69c0-21.34-8.12-29.23-26.56-29.23h-7.31v58.92H184.84z"/>
	<path class="st4" d="M234.14,109.26c0-19.25,10.09-31.78,31.32-31.78c21.46,0,29.81,12.76,29.81,30.51
		c0,19.72-9.98,32.48-31.32,32.48C242.73,140.46,234.14,127.47,234.14,109.26z M276.94,108.57c0-13.69-4.18-18.56-11.71-18.56
		c-7.66,0-12.76,4.76-12.76,18.67c0,14.03,4.52,19.6,12.3,19.6C272.3,128.29,276.94,123.07,276.94,108.57z"/>
	<path class="st4" d="M348.98,89.31c2.09,2.67,4.29,6.38,4.29,11.71c0,12.88-10.09,20.42-24.71,20.42c-3.71,0-7.08-0.46-9.16-1.04
		l-3.83,6.15l11.37,0.7c20.07,1.28,31.9,1.86,31.9,17.28c0,13.34-11.72,20.88-31.9,20.88c-20.99,0-29-5.34-29-14.5
		c0-5.22,2.32-8,6.38-11.83c-3.83-1.62-5.1-4.52-5.1-7.66c0-2.55,1.28-4.87,3.36-7.08c2.09-2.2,4.41-4.41,7.19-6.96
		c-5.68-2.78-9.98-8.82-9.98-17.4c0-13.34,8.81-22.5,26.56-22.5c4.99,0,8,0.46,10.67,1.16h22.62v9.86L348.98,89.31z M314.64,142.2
		c-1.51,1.86-3.02,3.83-3.02,6.15c0,4.64,5.92,6.03,14.03,6.03c6.73,0,15.89-0.46,15.89-6.73c0-3.71-4.41-3.94-9.98-4.29
		L314.64,142.2z M327.4,88.96c-6.38,0-11.14,3.13-11.14,10.67c0,5.68,3.13,9.63,10.79,9.63c6.5,0,10.9-3.83,10.9-9.86
		C337.96,92.56,334.02,88.96,327.4,88.96z"/>
	<path class="st4" d="M411.38,89.31c2.09,2.67,4.29,6.38,4.29,11.71c0,12.88-10.09,20.42-24.71,20.42c-3.71,0-7.08-0.46-9.16-1.04
		l-3.83,6.15l11.37,0.7c20.07,1.28,31.9,1.86,31.9,17.28c0,13.34-11.72,20.88-31.9,20.88c-20.99,0-29-5.34-29-14.5
		c0-5.22,2.32-8,6.38-11.83c-3.83-1.62-5.1-4.52-5.1-7.66c0-2.55,1.28-4.87,3.36-7.08c2.09-2.2,4.41-4.41,7.19-6.96
		c-5.68-2.78-9.98-8.82-9.98-17.4c0-13.34,8.81-22.5,26.56-22.5c4.99,0,8,0.46,10.67,1.16h22.62v9.86L411.38,89.31z M377.05,142.2
		c-1.51,1.86-3.02,3.83-3.02,6.15c0,4.64,5.92,6.03,14.03,6.03c6.73,0,15.89-0.46,15.89-6.73c0-3.71-4.41-3.94-9.98-4.29
		L377.05,142.2z M389.81,88.96c-6.38,0-11.14,3.13-11.14,10.67c0,5.68,3.13,9.63,10.79,9.63c6.5,0,10.9-3.83,10.9-9.86
		C400.36,92.56,396.42,88.96,389.81,88.96z"/>
	<path class="st4" d="M476.22,134.55c-7.19,3.48-15.08,5.92-23.78,5.92c-22.39,0-30.04-13.92-30.04-32.01
		c0-20.99,12.88-30.97,28.77-30.97c15.31,0,25.52,8,25.52,28.07c0,1.39-0.12,5.45-0.23,7.77h-35.49
		c0.58,8.24,4.18,13.69,13.69,13.69c4.52,0,9.4-1.04,17.28-3.94L476.22,134.55z M459.52,102.3c-0.12-9.74-3.94-12.3-8.7-12.3
		c-4.99,0-9.05,2.78-9.74,12.3H459.52z"/>
	<path class="st4" d="M524.48,139.07l-1.16-6.5l-0.81-0.12c-4.87,4.76-10.56,8-19.02,8c-13.69,0-22.5-8.7-22.5-30.85
		c0-23.31,11.72-32.13,24.59-32.13c6.73,0,11.95,2.32,16.36,5.57V65.42c0-1.16-0.46-1.97-1.51-2.32l-6.38-2.2l1.28-9.4h23.31v75.39
		c0,1.74,0.12,1.97,1.86,2.2l5.57,0.81v9.16H524.48z M521.23,94.42c-2.9-1.97-6.61-3.48-9.98-3.48c-8.58,0-11.95,8-11.95,18.33
		c0,11.25,3.25,17.51,10.56,17.51c3.94,0,8.24-2.32,11.37-4.99V94.42z"/>
</g>
</svg>
